<svg width="14" height="18" viewBox="0 0 14 18" fill="none" xmlns="http://www.w3.org/2000/svg">
<path d="M11.3043 8.2411C11.7114 7.63976 11.9471 6.93887 11.9859 6.21369C12.0248 5.48852 11.8654 4.76645 11.5249 4.12504C11.1843 3.48362 10.6755 2.94708 10.053 2.57303C9.43052 2.19898 8.71791 2.00156 7.9917 2.00195V1.00195C7.9917 0.736736 7.88634 0.482383 7.69881 0.294846C7.51127 0.10731 7.25692 0.00195313 6.9917 0.00195312C6.72648 0.00195313 6.47213 0.10731 6.28459 0.294846C6.09706 0.482383 5.9917 0.736736 5.9917 1.00195V2.00195H3.9917V1.00195C3.9917 0.736736 3.88634 0.482383 3.69881 0.294846C3.51127 0.10731 3.25692 0.00195313 2.9917 0.00195312C2.72648 0.00195313 2.47213 0.10731 2.28459 0.294846C2.09706 0.482383 1.9917 0.736736 1.9917 1.00195V2.00195H0.991699C0.726483 2.00195 0.472129 2.10731 0.284592 2.29485C0.0970558 2.48238 -0.00830078 2.73674 -0.00830078 3.00195C-0.00830078 3.26717 0.0970558 3.52152 0.284592 3.70906C0.472129 3.8966 0.726483 4.00195 0.991699 4.00195H1.9917V14.002H0.991699C0.726483 14.002 0.472129 14.1073 0.284592 14.2948C0.0970558 14.4824 -0.00830078 14.7367 -0.00830078 15.002C-0.00830078 15.2672 0.0970558 15.5215 0.284592 15.7091C0.472129 15.8966 0.726483 16.002 0.991699 16.002H1.9917V17.002C1.9917 17.2672 2.09706 17.5215 2.28459 17.7091C2.47213 17.8966 2.72648 18.002 2.9917 18.002C3.25692 18.002 3.51127 17.8966 3.69881 17.7091C3.88634 17.5215 3.9917 17.2672 3.9917 17.002V16.002H5.9917V17.002C5.9917 17.2672 6.09706 17.5215 6.28459 17.7091C6.47213 17.8966 6.72648 18.002 6.9917 18.002C7.25692 18.002 7.51127 17.8966 7.69881 17.7091C7.88634 17.5215 7.9917 17.2672 7.9917 17.002V16.002H9.9917C10.9362 16.0044 11.851 15.6716 12.5733 15.0629C13.2955 14.4542 13.7783 13.6089 13.9358 12.6776C14.0933 11.7463 13.9153 10.7893 13.4334 9.97691C12.9516 9.16452 12.1971 8.54945 11.3043 8.24115V8.2411ZM3.9917 4.00195H7.9917C8.52213 4.00195 9.03084 4.21267 9.40591 4.58774C9.78099 4.96281 9.9917 5.47152 9.9917 6.00195C9.9917 6.53239 9.78099 7.04109 9.40591 7.41617C9.03084 7.79124 8.52213 8.00195 7.9917 8.00195H3.9917V4.00195ZM9.9917 14.002H3.9917V10.002H9.9917C10.5221 10.002 11.0308 10.2127 11.4059 10.5877C11.781 10.9628 11.9917 11.4715 11.9917 12.002C11.9917 12.5324 11.781 13.0411 11.4059 13.4162C11.0308 13.7912 10.5221 14.002 9.9917 14.002Z" fill="black"/>
</svg>
